<mxfile host="app.diagrams.net" modified="2023-06-10T23:49:14.577Z" agent="Mozilla/5.0 (Windows NT 6.1) AppleWebKit/537.36 (KHTML, like Gecko) Chrome/109.0.5414.120 Safari/537.36 Avast/109.0.19981.120" etag="5weSOAP3N8n7YSFeFleI" version="21.3.8" type="github">
  <diagram name="PÃ¡gina-1" id="GXqpCHnYGjEbU3OezsAW">
    <mxGraphModel dx="1034" dy="484" grid="1" gridSize="10" guides="1" tooltips="1" connect="1" arrows="1" fold="1" page="1" pageScale="1" pageWidth="827" pageHeight="1169" math="0" shadow="0">
      <root>
        <mxCell id="0" />
        <mxCell id="1" parent="0" />
        <mxCell id="iPyday_xxKDaFqQTF6cL-1" value="Dyllan:Cliente" style="rounded=0;whiteSpace=wrap;html=1;" vertex="1" parent="1">
          <mxGeometry x="70" y="50" width="100" height="30" as="geometry" />
        </mxCell>
        <mxCell id="iPyday_xxKDaFqQTF6cL-2" value="Pacheco:Cliente" style="rounded=0;whiteSpace=wrap;html=1;" vertex="1" parent="1">
          <mxGeometry y="95" width="100" height="30" as="geometry" />
        </mxCell>
        <mxCell id="iPyday_xxKDaFqQTF6cL-3" value="Luis:Cliente" style="rounded=0;whiteSpace=wrap;html=1;" vertex="1" parent="1">
          <mxGeometry x="70" y="160" width="100" height="30" as="geometry" />
        </mxCell>
        <mxCell id="iPyday_xxKDaFqQTF6cL-4" value="California:Hotel" style="rounded=0;whiteSpace=wrap;html=1;" vertex="1" parent="1">
          <mxGeometry x="240" y="90" width="120" height="40" as="geometry" />
        </mxCell>
        <mxCell id="iPyday_xxKDaFqQTF6cL-7" value="Pello:Recepcionista" style="rounded=0;whiteSpace=wrap;html=1;" vertex="1" parent="1">
          <mxGeometry x="380" y="90" width="120" height="40" as="geometry" />
        </mxCell>
        <mxCell id="iPyday_xxKDaFqQTF6cL-8" value="Num():Habitaciones" style="rounded=0;whiteSpace=wrap;html=1;" vertex="1" parent="1">
          <mxGeometry x="540" y="90" width="120" height="40" as="geometry" />
        </mxCell>
        <mxCell id="iPyday_xxKDaFqQTF6cL-9" value="Francisco:Administrador" style="rounded=0;whiteSpace=wrap;html=1;" vertex="1" parent="1">
          <mxGeometry x="390" y="220" width="150" height="40" as="geometry" />
        </mxCell>
        <mxCell id="iPyday_xxKDaFqQTF6cL-10" value="" style="endArrow=none;html=1;rounded=0;" edge="1" parent="1" source="iPyday_xxKDaFqQTF6cL-3" target="iPyday_xxKDaFqQTF6cL-4">
          <mxGeometry width="50" height="50" relative="1" as="geometry">
            <mxPoint x="390" y="280" as="sourcePoint" />
            <mxPoint x="440" y="230" as="targetPoint" />
          </mxGeometry>
        </mxCell>
        <mxCell id="iPyday_xxKDaFqQTF6cL-11" value="" style="endArrow=none;html=1;rounded=0;exitX=1;exitY=0.5;exitDx=0;exitDy=0;" edge="1" parent="1" source="iPyday_xxKDaFqQTF6cL-2" target="iPyday_xxKDaFqQTF6cL-4">
          <mxGeometry width="50" height="50" relative="1" as="geometry">
            <mxPoint x="390" y="280" as="sourcePoint" />
            <mxPoint x="440" y="230" as="targetPoint" />
          </mxGeometry>
        </mxCell>
        <mxCell id="iPyday_xxKDaFqQTF6cL-12" value="" style="endArrow=none;html=1;rounded=0;" edge="1" parent="1" source="iPyday_xxKDaFqQTF6cL-1" target="iPyday_xxKDaFqQTF6cL-4">
          <mxGeometry width="50" height="50" relative="1" as="geometry">
            <mxPoint x="390" y="280" as="sourcePoint" />
            <mxPoint x="440" y="230" as="targetPoint" />
          </mxGeometry>
        </mxCell>
        <mxCell id="iPyday_xxKDaFqQTF6cL-13" value="" style="endArrow=none;html=1;rounded=0;" edge="1" parent="1" source="iPyday_xxKDaFqQTF6cL-4" target="iPyday_xxKDaFqQTF6cL-7">
          <mxGeometry width="50" height="50" relative="1" as="geometry">
            <mxPoint x="390" y="280" as="sourcePoint" />
            <mxPoint x="440" y="230" as="targetPoint" />
          </mxGeometry>
        </mxCell>
        <mxCell id="iPyday_xxKDaFqQTF6cL-14" value="" style="endArrow=none;html=1;rounded=0;" edge="1" parent="1" source="iPyday_xxKDaFqQTF6cL-7" target="iPyday_xxKDaFqQTF6cL-8">
          <mxGeometry width="50" height="50" relative="1" as="geometry">
            <mxPoint x="390" y="280" as="sourcePoint" />
            <mxPoint x="440" y="230" as="targetPoint" />
          </mxGeometry>
        </mxCell>
        <mxCell id="iPyday_xxKDaFqQTF6cL-17" value="solicitar. reservacion" style="text;html=1;align=center;verticalAlign=middle;resizable=0;points=[];autosize=1;strokeColor=none;fillColor=none;" vertex="1" parent="1">
          <mxGeometry x="100" y="110" width="130" height="30" as="geometry" />
        </mxCell>
        <mxCell id="iPyday_xxKDaFqQTF6cL-18" value="solicitar. reservacion" style="text;html=1;align=center;verticalAlign=middle;resizable=0;points=[];autosize=1;strokeColor=none;fillColor=none;" vertex="1" parent="1">
          <mxGeometry x="180" y="155" width="130" height="30" as="geometry" />
        </mxCell>
        <mxCell id="iPyday_xxKDaFqQTF6cL-19" value="solicitar. reservacion" style="text;html=1;align=center;verticalAlign=middle;resizable=0;points=[];autosize=1;strokeColor=none;fillColor=none;" vertex="1" parent="1">
          <mxGeometry x="180" y="50" width="130" height="30" as="geometry" />
        </mxCell>
        <mxCell id="iPyday_xxKDaFqQTF6cL-20" value="Reservar habitaciones" style="text;html=1;align=center;verticalAlign=middle;resizable=0;points=[];autosize=1;strokeColor=none;fillColor=none;" vertex="1" parent="1">
          <mxGeometry x="305" y="60" width="140" height="30" as="geometry" />
        </mxCell>
        <mxCell id="iPyday_xxKDaFqQTF6cL-21" value="tipo de habitaciones" style="text;html=1;align=center;verticalAlign=middle;resizable=0;points=[];autosize=1;strokeColor=none;fillColor=none;" vertex="1" parent="1">
          <mxGeometry x="470" y="60" width="130" height="30" as="geometry" />
        </mxCell>
        <mxCell id="iPyday_xxKDaFqQTF6cL-22" value="Calcular gastos y ganancias&amp;nbsp;" style="text;html=1;align=center;verticalAlign=middle;resizable=0;points=[];autosize=1;strokeColor=none;fillColor=none;" vertex="1" parent="1">
          <mxGeometry x="445" y="155" width="180" height="30" as="geometry" />
        </mxCell>
        <mxCell id="iPyday_xxKDaFqQTF6cL-23" value="" style="endArrow=none;html=1;rounded=0;" edge="1" parent="1" source="iPyday_xxKDaFqQTF6cL-9" target="iPyday_xxKDaFqQTF6cL-7">
          <mxGeometry width="50" height="50" relative="1" as="geometry">
            <mxPoint x="172" y="170" as="sourcePoint" />
            <mxPoint x="255" y="140" as="targetPoint" />
          </mxGeometry>
        </mxCell>
      </root>
    </mxGraphModel>
  </diagram>
</mxfile>
